<?xml version="1.0" encoding="iso-8859-1"?>
<!-- Generator: Adobe Illustrator 19.0.0, SVG Export Plug-In . SVG Version: 6.00 Build 0)  -->
<svg version="1.1" id="Capa_1" xmlns="http://www.w3.org/2000/svg" xmlns:xlink="http://www.w3.org/1999/xlink" x="0px" y="0px"
	 viewBox="0 0 512 512" style="enable-background:new 0 0 512 512;" xml:space="preserve">
<path style="fill:#BD9D7D;" d="M71.237,314.109c0-98.164,79.602-177.735,177.777-177.686
	c98.375,0.05,177.595,81.012,177.595,179.387v130.701c0,7.559-6.128,13.686-13.686,13.686h-328c-7.559,0-13.686-6.128-13.686-13.686
	V314.109z"/>
<rect x="111.381" y="314.11" style="opacity:0.1;enable-background:new    ;" width="289.63" height="146.09"/>
<path style="fill:#F98CAE;" d="M339.687,512c7.32,0,12.901-6.467,11.941-13.724c-6.714-50.733-50.137-89.882-102.705-89.882
	c-52.567,0-95.991,39.149-102.705,89.882c-0.96,7.257,4.621,13.724,11.941,13.724H339.687z"/>
<path style="opacity:0.1;enable-background:new    ;" d="M248.923,408.394c-37.746,0-70.776,20.185-88.887,50.35
	c25.003,18.039,55.701,28.675,88.887,28.675s63.884-10.636,88.887-28.675C319.699,428.58,286.668,408.394,248.923,408.394z"/>
<circle style="fill:#FFE584;" cx="248.921" cy="314.11" r="152.09"/>
<path style="opacity:0.1;enable-background:new    ;" d="M340.691,192.82c15.3,15.711,27.224,34.72,34.622,55.855H123.207v49.634
	h260.607c0.001,0.202,0.007,0.403,0.007,0.605c0,83.999-68.094,152.094-152.093,152.094c-34.472,0-66.261-11.475-91.769-30.805
	c27.629,28.371,66.234,45.999,108.964,45.999c83.999,0,152.094-68.094,152.094-152.094
	C401.016,264.582,377.339,220.592,340.691,192.82z"/>
<path style="fill:#BD9D7D;" d="M104.303,383.982c25-14.982,51.495-55.358,62-101.982h241c0,0-14.76-132.444-158.38-132.444
	c-38.811,0-164.146,44.102-164.146,147.109C84.776,350.947,92.677,368.477,104.303,383.982z"/>
<g>
	<path style="fill:#4A5058;" d="M190.689,344.565c-4.143,0-7.5-3.357-7.5-7.5v-12.559c0-4.143,3.357-7.5,7.5-7.5s7.5,3.357,7.5,7.5
		v12.559C198.189,341.208,194.831,344.565,190.689,344.565z"/>
	<path style="fill:#4A5058;" d="M341.993,344.565c-4.143,0-7.5-3.357-7.5-7.5v-12.559c0-4.143,3.357-7.5,7.5-7.5s7.5,3.357,7.5,7.5
		v12.559C349.493,341.208,346.136,344.565,341.993,344.565z"/>
	<path style="fill:#4A5058;" d="M266.341,354.208c-9.812,0-19.143-4.249-25.6-11.658c-2.722-3.123-2.396-7.86,0.727-10.582
		c3.122-2.721,7.859-2.396,10.582,0.727c3.607,4.14,8.816,6.514,14.291,6.514s10.684-2.374,14.291-6.514
		c2.722-3.123,7.46-3.448,10.582-0.727c3.123,2.722,3.448,7.459,0.727,10.582C285.484,349.959,276.153,354.208,266.341,354.208z"/>
</g>
<path style="fill:#FFE584;" d="M312.188,197.149h-126.53c-7.084,0-11.793-7.329-8.849-13.772L240.091,44.86
	c3.457-7.566,14.206-7.566,17.663,0l63.283,138.516C323.981,189.82,319.272,197.149,312.188,197.149z"/>
<path style="fill:#80CBDE;" d="M224.451,139.57c-1.919,0-3.839-0.732-5.304-2.196c-2.929-2.93-2.929-7.678,0-10.607l7.048-7.048
	c2.93-2.928,7.678-2.928,10.607,0c2.929,2.93,2.929,7.678,0,10.607l-7.048,7.048C228.29,138.838,226.37,139.57,224.451,139.57z"/>
<path style="fill:#F98CAE;" d="M266.868,144.943c-1.139,0-2.293-0.26-3.379-0.809c-3.696-1.869-5.178-6.381-3.309-10.078
	l4.498-8.895c1.869-3.695,6.379-5.178,10.078-3.309c3.696,1.869,5.178,6.381,3.309,10.078l-4.498,8.896
	C272.247,143.437,269.608,144.943,266.868,144.943z"/>
<path style="fill:#FFFFFF;" d="M255.648,116.609c-1.92,0-3.839-0.732-5.304-2.197l-6.725-6.726
	c-2.929-2.929-2.929-7.678,0.001-10.606c2.929-2.929,7.678-2.928,10.607,0.001l6.725,6.726c2.929,2.929,2.929,7.678-0.001,10.606
	C259.487,115.877,257.567,116.609,255.648,116.609z"/>
<path style="fill:#E8618C;" d="M321.037,183.376l-10.992-24.06H187.8l-10.992,24.06c-2.944,6.443,1.765,13.772,8.849,13.772h126.53
	C319.272,197.149,323.981,189.82,321.037,183.376z"/>
<path style="opacity:0.1;enable-background:new    ;" d="M321.037,183.376L257.754,44.86c-3.457-7.566-14.207-7.566-17.663,0
	l-19.198,42.022c2.511,2.186,5.818,3.451,9.376,3.313c3.529-0.137,6.972,1.116,9.588,3.49c5.143,4.666,12.989,4.666,18.132,0l0,0
	c0.903-0.819,1.909-1.494,2.978-2.035l41.907,91.727c2.944,6.443-1.765,13.772-8.849,13.772h18.164
	C319.272,197.149,323.981,189.82,321.037,183.376z"/>
<path style="fill:#E8618C;" d="M254.024,1.004L254.024,1.004c6.429-2.626,13.801,0.057,17.038,6.201l0,0
	c1.646,3.125,4.453,5.48,7.816,6.558l0,0c6.613,2.121,10.535,8.915,9.066,15.703l0,0c-0.747,3.452-0.111,7.06,1.772,10.048l0,0
	c3.702,5.875,2.34,13.602-3.149,17.856l0,0c-2.792,2.164-4.623,5.337-5.102,8.836l0,0c-0.94,6.881-6.95,11.924-13.89,11.655l0,0
	c-3.53-0.137-6.972,1.116-9.588,3.49l0,0c-5.143,4.666-12.988,4.666-18.132,0l0,0c-2.616-2.373-6.058-3.626-9.588-3.49l0,0
	c-6.939,0.269-12.949-4.774-13.89-11.655l0,0c-0.478-3.5-2.31-6.672-5.102-8.836l0,0c-5.489-4.255-6.851-11.981-3.149-17.856l0,0
	c1.883-2.988,2.519-6.596,1.772-10.048l0,0c-1.47-6.787,2.453-13.582,9.066-15.703l0,0c3.363-1.079,6.17-3.433,7.816-6.558l0,0
	c3.237-6.144,10.609-8.827,17.038-6.201l0,0C247.091,2.34,250.754,2.34,254.024,1.004z"/>
<path style="fill:#F98CAE;" d="M441.359,221.159c-1.145,0-2.308-0.264-3.398-0.819c-3.69-1.88-5.159-6.395-3.278-10.087
	c9.142-17.948,3.905-39.508-12.451-51.263c-17.455-12.544-26.144-34.295-22.135-55.413c0.772-4.07,4.701-6.746,8.767-5.97
	c4.069,0.772,6.742,4.697,5.97,8.767c-2.925,15.41,3.415,31.282,16.152,40.435c22.416,16.11,29.592,45.655,17.063,70.253
	C446.723,219.662,444.089,221.159,441.359,221.159z"/>
<g>
	<path style="fill:#E8618C;" d="M459.145,378.515c-2.752,0-5.401-1.52-6.715-4.149c-9.608-19.228-7.172-42.522,6.206-59.348
		c12.536-15.766,11.703-37.936-1.981-52.716c-2.814-3.04-2.632-7.785,0.407-10.599c3.04-2.814,7.786-2.633,10.599,0.407
		c18.755,20.256,19.896,50.639,2.716,72.243c-9.762,12.277-11.539,29.276-4.528,43.307c1.852,3.705,0.349,8.21-3.357,10.062
		C461.415,378.26,460.272,378.515,459.145,378.515z"/>
	<path style="fill:#E8618C;" d="M38.115,336.679c-2.543,0-5.023-1.294-6.432-3.631c-11.091-18.413-10.494-41.828,1.52-59.652
		c11.258-16.702,8.683-38.738-6.122-52.396c-3.044-2.809-3.235-7.554-0.427-10.599c2.809-3.043,7.554-3.234,10.599-0.427
		c20.288,18.718,23.816,48.917,8.388,71.806c-8.767,13.007-9.202,30.093-1.108,43.528c2.137,3.549,0.993,8.157-2.555,10.295
		C40.768,336.331,39.433,336.679,38.115,336.679z"/>
</g>
<g>
	<path style="fill:#80CBDE;" d="M93.953,184.597c-1.296,0-2.608-0.336-3.806-1.042c-3.566-2.105-4.752-6.704-2.646-10.271
		c2.678-4.536,3.323-9.711,1.867-14.966c-1.813-6.542-6.77-12.419-13.6-16.123c-11.989-6.503-19.935-17.251-21.799-29.488
		c-1.625-10.658,1.792-21.244,9.374-29.043c2.888-2.971,7.636-3.038,10.605-0.15c2.971,2.888,3.037,7.636,0.15,10.605
		c-4.343,4.467-6.226,10.266-5.302,16.328c1.151,7.554,6.299,14.319,14.122,18.563c10.39,5.636,18.009,14.858,20.903,25.304
		c2.533,9.14,1.323,18.585-3.404,26.596C99.02,183.278,96.52,184.597,93.953,184.597z"/>
	<path style="fill:#80CBDE;" d="M464.513,483.25c-2.526,0-4.992-1.276-6.406-3.59c-2.16-3.534-1.046-8.15,2.488-10.311
		c5.789-3.538,7.716-10.939,4.387-16.851c-4.011-7.124-4.655-15.597-1.767-23.244c2.89-7.648,8.974-13.58,16.692-16.273
		c3.91-1.364,8.188,0.699,9.552,4.61c1.365,3.911-0.699,8.188-4.61,9.552c-3.515,1.227-6.285,3.928-7.601,7.41
		c-1.315,3.482-1.022,7.34,0.804,10.584c7.311,12.982,3.079,29.239-9.635,37.01C467.197,482.895,465.846,483.25,464.513,483.25z"/>
</g>
<path style="fill:#F98CAE;" d="M36.074,466.298c-1.824,0-3.653-0.662-5.097-2c-3.038-2.816-3.218-7.562-0.401-10.599
	c4.612-4.976,4.46-12.623-0.347-17.41c-5.794-5.77-8.711-13.75-8.004-21.895s4.955-15.503,11.654-20.188
	c3.396-2.375,8.071-1.545,10.444,1.849c2.374,3.395,1.546,8.07-1.849,10.444c-3.05,2.133-4.984,5.483-5.306,9.191
	c-0.322,3.709,1.006,7.343,3.644,9.97c10.559,10.514,10.893,27.31,0.763,38.236C40.099,465.491,38.089,466.298,36.074,466.298z"/>
<g>
</g>
<g>
</g>
<g>
</g>
<g>
</g>
<g>
</g>
<g>
</g>
<g>
</g>
<g>
</g>
<g>
</g>
<g>
</g>
<g>
</g>
<g>
</g>
<g>
</g>
<g>
</g>
<g>
</g>
</svg>
