<?xml version="1.0" encoding="iso-8859-1"?>
<!-- Generator: Adobe Illustrator 19.0.0, SVG Export Plug-In . SVG Version: 6.00 Build 0)  -->
<svg version="1.1" id="Capa_1" xmlns="http://www.w3.org/2000/svg" xmlns:xlink="http://www.w3.org/1999/xlink" x="0px" y="0px"
	 viewBox="0 0 512.001 512.001" style="enable-background:new 0 0 512.001 512.001;" xml:space="preserve">
<path style="fill:#E4E7E9;" d="M482.984,512H165.679c-12.955,0-23.457-10.502-23.457-23.457V161.885
	c0-12.955,10.502-23.457,23.457-23.457h317.305c12.955,0,23.457,10.502,23.457,23.457v326.659
	C506.441,501.499,495.939,512,482.984,512z"/>
<g style="opacity:0.4;">
	<ellipse style="fill:#F98F9D;" cx="406.01" cy="261.229" rx="36.412" ry="21.82"/>
	<ellipse style="fill:#F98F9D;" cx="242.65" cy="261.229" rx="36.412" ry="21.82"/>
</g>
<path style="fill:#60D195;" d="M142.222,424.964v63.58c0,12.955,10.502,23.457,23.457,23.457h317.305
	c12.955,0,23.456-10.502,23.456-23.457v-63.58L142.222,424.964L142.222,424.964z"/>
<path style="fill:#E4E7E9;" d="M63.534,424.964h78.688v-42.318H63.534c-8.633,0-15.655-7.023-15.655-15.655V259.988
	c0-8.633,7.023-15.655,15.655-15.655h78.688v-42.318H63.534c-31.966,0-57.973,26.007-57.973,57.973v107.004
	C5.561,398.957,31.568,424.964,63.534,424.964z"/>
<path style="opacity:0.1;enable-background:new    ;" d="M97.635,202.015v42.318h44.587v-42.318L97.635,202.015L97.635,202.015z
	 M142.222,382.646H97.635v42.318h44.587V382.646z"/>
<path style="fill:#937254;" d="M296.635,446.553L296.635,446.553c-23.584-9.669-38.986-32.63-38.986-58.119v-41.379
	c0-25.488,15.403-48.45,38.986-58.119l0,0c13.212-5.417,27.696,4.3,27.696,18.579v120.458
	C324.331,442.254,309.847,451.97,296.635,446.553z"/>
<path style="opacity:0.1;enable-background:new    ;" d="M296.635,446.553L296.635,446.553
	c-23.584-9.669-38.986-32.63-38.986-58.119v-41.379c0-25.488,15.403-48.45,38.986-58.119l0,0c13.212-5.417,27.696,4.3,27.696,18.579
	v120.458C324.331,442.254,309.847,451.97,296.635,446.553z"/>
<path style="fill:#937254;" d="M352.028,446.553L352.028,446.553c23.584-9.669,38.986-32.63,38.986-58.119v-41.379
	c0-25.488-15.403-48.45-38.986-58.119l0,0c-13.212-5.417-27.696,4.3-27.696,18.579v120.458
	C324.331,442.254,338.816,451.97,352.028,446.553z"/>
<g>
	<path style="fill:#3E4B58;" d="M242.017,228.751c-4.142,0-7.5-3.358-7.5-7.5v-14.04c0-4.142,3.358-7.5,7.5-7.5s7.5,3.358,7.5,7.5
		v14.04C249.517,225.393,246.159,228.751,242.017,228.751z"/>
	<path style="fill:#3E4B58;" d="M406.646,228.751c-4.142,0-7.5-3.358-7.5-7.5v-14.04c0-4.142,3.358-7.5,7.5-7.5s7.5,3.358,7.5,7.5
		v14.04C414.146,225.393,410.788,228.751,406.646,228.751z"/>
	<path style="fill:#3E4B58;" d="M348.893,231.993c0,13.375-11.08,24.162-24.562,23.682c-12.842-0.457-22.834-11.401-22.834-24.25
		v-16.668c0-3.568,2.893-6.462,6.461-6.462h34.472c3.569,0,6.462,2.893,6.462,6.462v17.236H348.893z"/>
</g>
<g>
	<path style="fill:#937254;" d="M258.233,107.622c-1.751,0-3.508-0.609-4.93-1.851c-3.12-2.725-3.44-7.462-0.716-10.582
		c4.817-5.517,7.08-12.569,6.37-19.858c-0.709-7.29-4.29-13.773-10.081-18.257c-16.261-12.589-20.77-35.513-10.488-53.323
		c2.07-3.587,6.658-4.817,10.245-2.745c3.587,2.071,4.817,6.658,2.745,10.245c-6.549,11.343-3.677,25.944,6.68,33.962
		c9.092,7.04,14.713,17.219,15.828,28.664c1.114,11.444-2.438,22.517-10.001,31.178
		C262.402,106.753,260.323,107.622,258.233,107.622z"/>
	<path style="fill:#937254;" d="M329.099,107.622c-1.75,0-3.508-0.609-4.93-1.851c-3.12-2.725-3.441-7.462-0.716-10.582
		c4.817-5.517,7.079-12.569,6.37-19.858c-0.71-7.289-4.29-13.773-10.081-18.257c-16.262-12.589-20.771-35.513-10.488-53.323
		c2.07-3.587,6.658-4.817,10.245-2.745c3.587,2.071,4.816,6.658,2.745,10.245c-6.549,11.343-3.677,25.944,6.681,33.962
		c9.092,7.04,14.713,17.22,15.828,28.664c1.114,11.444-2.437,22.517-10,31.178C333.268,106.753,331.189,107.622,329.099,107.622z"/>
	<path style="fill:#937254;" d="M399.965,107.622c-1.75,0-3.508-0.609-4.93-1.851c-3.12-2.725-3.441-7.462-0.716-10.582
		c4.817-5.517,7.079-12.569,6.369-19.858c-0.71-7.289-4.29-13.773-10.081-18.256c-16.261-12.589-20.77-35.513-10.488-53.323
		c2.07-3.587,6.658-4.817,10.245-2.745c3.587,2.071,4.816,6.658,2.745,10.245c-6.549,11.343-3.677,25.944,6.68,33.962
		c9.092,7.04,14.713,17.219,15.828,28.664c1.114,11.444-2.437,22.517-10,31.178C404.135,106.753,402.055,107.622,399.965,107.622z"
		/>
</g>
<path style="opacity:0.1;enable-background:new    ;" d="M482.984,138.428h-47.605c12.955,0,23.457,10.502,23.457,23.457v326.659
	c0,12.955-10.502,23.457-23.457,23.457h47.605c12.955,0,23.456-10.502,23.456-23.457V161.885
	C506.441,148.93,495.939,138.428,482.984,138.428z"/>
<g>
</g>
<g>
</g>
<g>
</g>
<g>
</g>
<g>
</g>
<g>
</g>
<g>
</g>
<g>
</g>
<g>
</g>
<g>
</g>
<g>
</g>
<g>
</g>
<g>
</g>
<g>
</g>
<g>
</g>
</svg>
