<?xml version="1.0" encoding="iso-8859-1"?>
<!-- Generator: Adobe Illustrator 19.0.0, SVG Export Plug-In . SVG Version: 6.00 Build 0)  -->
<svg version="1.1" id="Capa_1" xmlns="http://www.w3.org/2000/svg" xmlns:xlink="http://www.w3.org/1999/xlink" x="0px" y="0px"
	 viewBox="0 0 512.001 512.001" style="enable-background:new 0 0 512.001 512.001;" xml:space="preserve">
<circle style="fill:#FDB876;" cx="256.001" cy="128.29" r="68.55"/>
<path style="fill:#7CD1A9;" d="M457.833,217.687H54.169v262.849c0,17.377,14.087,31.465,31.465,31.465h340.735
	c17.377,0,31.465-14.087,31.465-31.465L457.833,217.687L457.833,217.687z"/>
<g>
	<path style="opacity:0.3;fill:#FFFFFF;enable-background:new    ;" d="M54.169,260.462v145.875
		c40.282,0,72.937-32.655,72.937-72.937S94.451,260.462,54.169,260.462z"/>
	<path style="opacity:0.3;fill:#FFFFFF;enable-background:new    ;" d="M441.31,385.816c-40.282,0-72.937,32.655-72.937,72.937
		c0,21.012,8.898,39.937,23.116,53.246h34.88c17.377,0,31.465-14.087,31.465-31.465v-92.816
		C452.522,386.488,446.996,385.816,441.31,385.816z"/>
</g>
<path style="fill:#7CD1A9;" d="M473.871,217.687H38.131c-8.173,0-14.799-6.626-14.799-14.799v-59.801
	c0-8.173,6.625-14.798,14.799-14.798h435.74c8.173,0,14.798,6.625,14.798,14.798v59.801
	C488.67,211.061,482.044,217.687,473.871,217.687z"/>
<path style="opacity:0.1;enable-background:new    ;" d="M473.871,128.289h-40.426c8.173,0,14.799,6.626,14.799,14.798v59.801
	c0,8.173-6.625,14.799-14.799,14.799h40.426c8.173,0,14.798-6.626,14.798-14.799v-59.801
	C488.67,134.914,482.044,128.289,473.871,128.289z"/>
<rect x="215.571" y="217.69" style="fill:#FFE584;" width="80.85" height="294.31"/>
<g>
	<path style="fill:#4A5058;" d="M173.86,313.578c-4.143,0-7.5-3.357-7.5-7.5v-13.635c0-4.143,3.357-7.5,7.5-7.5s7.5,3.357,7.5,7.5
		v13.635C181.36,310.221,178.003,313.578,173.86,313.578z"/>
	<path style="fill:#4A5058;" d="M338.142,313.578c-4.143,0-7.5-3.357-7.5-7.5v-13.635c0-4.143,3.357-7.5,7.5-7.5s7.5,3.357,7.5,7.5
		v13.635C345.642,310.221,342.284,313.578,338.142,313.578z"/>
	<path style="fill:#4A5058;" d="M256.001,324.049c-10.467,0-20.421-4.534-27.311-12.438c-2.722-3.123-2.396-7.86,0.727-10.582
		c3.121-2.721,7.859-2.395,10.582,0.727c4.039,4.636,9.872,7.294,16.002,7.294c6.13,0,11.963-2.658,16.002-7.294
		c2.722-3.123,7.457-3.448,10.582-0.727c3.122,2.722,3.448,7.459,0.726,10.582C276.422,319.515,266.468,324.049,256.001,324.049z"/>
</g>
<rect x="215.571" y="128.29" style="fill:#FFE584;" width="80.85" height="89.4"/>
<path style="opacity:0.1;enable-background:new    ;" d="M54.169,217.687v46.992h343.615v215.857
	c0,17.377-14.087,31.465-31.465,31.465h60.049c17.377,0,31.465-14.087,31.465-31.465V217.687H54.169z"/>
<path style="fill:#FFE584;" d="M233.98,128.289h-90.529c-35.426,0-64.144-28.718-64.144-64.144l0,0
	C79.306,28.718,108.024,0,143.45,0l0,0c49.998,0,90.529,40.531,90.529,90.529v37.76H233.98z"/>
<path style="opacity:0.1;enable-background:new    ;" d="M143.45,0L143.45,0c-1.91,0-3.797,0.1-5.664,0.263
	c46.749,3.551,83.576,42.608,83.576,90.266v37.759h12.618V90.529C233.98,40.531,193.448,0,143.45,0z"/>
<path style="opacity:0.1;enable-background:new    ;" d="M193.554,128.289h-43.207c-16.908,0-30.614-13.707-30.614-30.614l0,0
	c0-16.908,13.706-30.614,30.614-30.614l0,0c23.863,0,43.207,19.345,43.207,43.207V128.289z"/>
<path style="fill:#FFE584;" d="M278.022,128.289h90.53c35.426,0,64.144-28.718,64.144-64.144l0,0
	C432.696,28.718,403.978,0,368.552,0l0,0c-49.998,0-90.529,40.531-90.529,90.529v37.76H278.022z"/>
<path style="opacity:0.1;enable-background:new    ;" d="M318.448,128.289h43.207c16.908,0,30.614-13.707,30.614-30.614l0,0
	c0-16.908-13.707-30.614-30.614-30.614l0,0c-23.863,0-43.207,19.345-43.207,43.207V128.289z"/>
<path style="opacity:0.1;enable-background:new    ;" d="M368.552,0L368.552,0c-2.68,0-5.332,0.123-7.953,0.352
	c32.267,3.36,57.425,30.636,57.425,63.793l0,0c0,26.933-16.606,49.973-40.132,59.48c-4.707,2.951-10.271,4.664-16.236,4.664h6.896
	c35.426,0,64.144-28.718,64.144-64.144l0,0C432.696,28.718,403.978,0,368.552,0z"/>
<g>
</g>
<g>
</g>
<g>
</g>
<g>
</g>
<g>
</g>
<g>
</g>
<g>
</g>
<g>
</g>
<g>
</g>
<g>
</g>
<g>
</g>
<g>
</g>
<g>
</g>
<g>
</g>
<g>
</g>
</svg>
