<?xml version="1.0" encoding="iso-8859-1"?>
<!-- Generator: Adobe Illustrator 19.0.0, SVG Export Plug-In . SVG Version: 6.00 Build 0)  -->
<svg version="1.1" id="Capa_1" xmlns="http://www.w3.org/2000/svg" xmlns:xlink="http://www.w3.org/1999/xlink" x="0px" y="0px"
	 viewBox="0 0 511.999 511.999" style="enable-background:new 0 0 511.999 511.999;" xml:space="preserve">
<circle style="fill:#F4D06D;" cx="255.999" cy="255.998" r="242.48"/>
<path style="opacity:0.12;enable-background:new    ;" d="M328.188,24.443C413.177,62.137,472.466,147.239,472.466,246.2
	c0,133.92-108.564,242.483-242.483,242.483c-25.14,0-49.387-3.827-72.189-10.928c30.023,13.316,63.247,20.727,98.206,20.727
	c133.92,0,242.483-108.564,242.483-242.483C498.482,147.218,426.853,55.169,328.188,24.443z"/>
<path style="fill:#ED6EA4;" d="M110.109,117.173c-25.285-25.285-66.314-25.231-91.531,0.162
	c-25.162,25.337-24.592,66.455,0.657,91.704l76.566,76.567c7.902,7.902,20.714,7.902,28.616,0l76.566-76.567
	c25.249-25.249,25.819-66.368,0.657-91.704C176.422,91.942,135.394,91.888,110.109,117.173z"/>
<path style="opacity:0.12;enable-background:new    ;" d="M201.64,117.335c-9.866-9.935-22.153-15.99-34.97-18.168
	c7.433,3.175,14.393,7.804,20.442,13.895c25.162,25.336,24.592,66.455-0.657,91.704l-76.567,76.566
	c-3.448,3.448-7.832,5.391-12.334,5.83c7.943,6.301,19.52,5.785,26.862-1.557l76.566-76.567
	C226.233,183.79,226.802,142.672,201.64,117.335z"/>
<path style="fill:#ED6EA4;" d="M401.889,117.173c-25.285-25.285-66.314-25.231-91.531,0.162
	c-25.162,25.337-24.592,66.455,0.657,91.704l76.566,76.567c7.902,7.902,20.714,7.902,28.616,0l76.566-76.567
	c25.249-25.249,25.819-66.368,0.657-91.704C468.203,91.942,427.174,91.888,401.889,117.173z"/>
<path style="opacity:0.12;enable-background:new    ;" d="M493.421,117.335c-9.866-9.935-22.153-15.99-34.97-18.168
	c7.433,3.175,14.393,7.804,20.442,13.895c25.162,25.336,24.592,66.455-0.657,91.704l-76.566,76.566
	c-3.448,3.448-7.832,5.391-12.334,5.83c7.943,6.301,19.52,5.785,26.862-1.557l76.566-76.567
	C518.013,183.79,518.582,142.672,493.421,117.335z"/>
<path style="fill:#394049;" d="M283.947,326.98c-11.341,0-21.455-5.353-27.948-13.666c-6.493,8.313-16.607,13.666-27.948,13.666
	c-19.546,0-35.448-15.902-35.448-35.448c0-4.143,3.358-7.5,7.5-7.5s7.5,3.357,7.5,7.5c0,11.275,9.173,20.448,20.448,20.448
	s20.448-9.173,20.448-20.448c0-4.143,3.358-7.5,7.5-7.5c4.143,0,7.5,3.357,7.5,7.5c0,11.275,9.173,20.448,20.448,20.448
	s20.448-9.173,20.448-20.448c0-4.143,3.357-7.5,7.5-7.5s7.5,3.357,7.5,7.5C319.396,311.078,303.493,326.98,283.947,326.98z"/>
<g>
</g>
<g>
</g>
<g>
</g>
<g>
</g>
<g>
</g>
<g>
</g>
<g>
</g>
<g>
</g>
<g>
</g>
<g>
</g>
<g>
</g>
<g>
</g>
<g>
</g>
<g>
</g>
<g>
</g>
</svg>
