<?xml version="1.0" encoding="iso-8859-1"?>
<!-- Generator: Adobe Illustrator 19.0.0, SVG Export Plug-In . SVG Version: 6.00 Build 0)  -->
<svg version="1.1" id="Capa_1" xmlns="http://www.w3.org/2000/svg" xmlns:xlink="http://www.w3.org/1999/xlink" x="0px" y="0px"
	 viewBox="0 0 512 512" style="enable-background:new 0 0 512 512;" xml:space="preserve">
<path style="fill:#EAEAEA;" d="M444.84,512H67.16c-11.522,0-20.863-9.341-20.863-20.863V20.863C46.297,9.341,55.638,0,67.16,0
	h377.68c11.522,0,20.863,9.341,20.863,20.863v470.274C465.703,502.659,456.363,512,444.84,512z"/>
<path style="opacity:0.12;enable-background:new    ;" d="M444.84,0h-18.52c11.522,0,20.863,9.341,20.863,20.863v470.274
	c0,11.522-9.341,20.863-20.863,20.863h18.52c11.522,0,20.863-9.341,20.863-20.863V20.863C465.703,9.341,456.363,0,444.84,0z"/>
<rect x="80.66" y="37.709" style="fill:#9EDBF5;" width="350.69" height="350.69"/>
<circle style="fill:#F4D06D;" cx="247.69" cy="225.96" r="142.17"/>
<g>
	<path style="fill:#394049;" d="M157.22,116.272c-38.143,31.521-58.723,82.08-49.55,134.289c1.149-0.153,2.299-0.316,3.452-0.519
		c44.003-7.759,73.384-49.72,65.625-93.722C174.015,140.826,167.029,127.158,157.22,116.272z"/>
	<path style="fill:#394049;" d="M295.199,91.943c46.624,16.575,83.254,57.045,92.491,109.244c-1.132,0.249-2.269,0.49-3.421,0.693
		c-44.003,7.759-85.963-21.622-93.722-65.625C287.814,120.76,289.704,105.527,295.199,91.943z"/>
</g>
<path style="opacity:0.12;enable-background:new    ;" d="M387.706,201.273C375.033,129.4,310.431,79.736,239.289,84.037
	c64.122,3.901,119.614,51.192,131.259,117.236c13.635,77.326-37.997,151.064-115.323,164.699
	c-5.452,0.961-10.885,1.587-16.281,1.913c10.954,0.667,22.157,0.076,33.439-1.913C349.709,352.337,401.341,278.599,387.706,201.273z
	"/>
<path style="fill:#394049;" d="M367.082,60.546c0,0-113.815,20.069-144.075,25.404c-37.485,6.609-68.931,27.344-89.831,55.763
	c0.087,1.266,0.219,2.536,0.419,3.812c3.819,24.376,27.673,40.673,51.972,36.388l122.244-21.555
	c43.427-7.657,73.762-45.939,72.711-88.719C380.349,64.598,374.02,59.323,367.082,60.546z"/>
<path style="opacity:0.12;enable-background:new    ;" d="M380.522,71.64c-0.173-7.042-6.502-12.317-13.439-11.094
	c0,0-5.56,0.98-14.54,2.564c4.177,1.722,7.224,5.799,7.345,10.723c0.984,40.088-24.797,76.331-63.142,88.478l11.066-1.951
	C351.237,152.702,381.572,114.42,380.522,71.64z"/>
<g>
	<path style="fill:#394049;" d="M242.86,266.585c-3.664,0-7.233-1.118-10.297-3.264c-3.943-2.761-6.575-6.893-7.411-11.633
		c-0.719-4.079,2.004-7.97,6.084-8.689c4.08-0.72,7.969,2.004,8.689,6.083c0.189,1.073,0.859,1.683,1.242,1.951
		c0.383,0.268,1.185,0.69,2.256,0.5c1.641-0.289,2.74-1.859,2.451-3.5c-0.078-0.442-0.115-0.882-0.115-1.315
		c0.003-3.569,2.563-6.731,6.199-7.372c4.081-0.72,7.97,2.004,8.689,6.084c0.289,1.64,1.858,2.743,3.499,2.45
		c1.072-0.189,1.682-0.859,1.95-1.242s0.689-1.186,0.5-2.258c-0.719-4.079,2.004-7.97,6.083-8.689
		c4.082-0.722,7.969,2.005,8.689,6.083c0.836,4.74-0.224,9.523-2.985,13.466c-2.761,3.943-6.892,6.576-11.633,7.411
		c-3.773,0.666-7.577,0.129-10.959-1.511c-2.545,2.614-5.903,4.484-9.763,5.164C244.972,266.492,243.912,266.585,242.86,266.585z"/>
	<path style="fill:#394049;" d="M325.519,234.669c-3.571,0-6.735-2.559-7.377-6.198l-0.948-5.375
		c-0.72-4.079,2.004-7.969,6.083-8.689c4.081-0.724,7.97,2.004,8.689,6.083l0.948,5.375c0.72,4.079-2.003,7.969-6.083,8.688
		C326.39,234.632,325.952,234.669,325.519,234.669z"/>
</g>
<g>
	<path style="fill:#FFFFFF;" d="M176.683,284.387c-3.571,0-6.735-2.56-7.377-6.198c-0.719-4.079,2.004-7.97,6.083-8.689l11.967-2.11
		c4.081-0.718,7.969,2.004,8.689,6.083c0.719,4.079-2.004,7.97-6.083,8.688l-11.967,2.11
		C177.554,284.35,177.115,284.387,176.683,284.387z"/>
	<path style="fill:#FFFFFF;" d="M323.55,258.49c-3.571,0-6.735-2.56-7.377-6.198c-0.719-4.079,2.004-7.97,6.083-8.689l11.966-2.11
		c4.083-0.724,7.969,2.005,8.689,6.083c0.719,4.079-2.004,7.97-6.084,8.688l-11.966,2.11
		C324.421,258.453,323.982,258.49,323.55,258.49z"/>
</g>
<path style="fill:#394049;" d="M170.592,261.986c-3.572,0.001-6.736-2.56-7.378-6.199c-1.501-8.516,4.206-16.666,12.722-18.168
	c8.515-1.508,16.668,4.207,18.169,12.723c0.719,4.079-2.005,7.969-6.084,8.688c-4.081,0.726-7.969-2.003-8.688-6.084
	c-0.065-0.37-0.416-0.623-0.793-0.554c-0.37,0.064-0.619,0.42-0.553,0.792c0.719,4.079-2.005,7.969-6.084,8.688
	C171.463,261.949,171.024,261.986,170.592,261.986z"/>
<g>
</g>
<g>
</g>
<g>
</g>
<g>
</g>
<g>
</g>
<g>
</g>
<g>
</g>
<g>
</g>
<g>
</g>
<g>
</g>
<g>
</g>
<g>
</g>
<g>
</g>
<g>
</g>
<g>
</g>
</svg>
