<svg id="Capa_1" enable-background="new 0 0 512 512" height="512" viewBox="0 0 512 512" width="512" xmlns="http://www.w3.org/2000/svg" xmlns:xlink="http://www.w3.org/1999/xlink"><linearGradient id="SVGID_1_" gradientUnits="userSpaceOnUse" x1="74.98" x2="437.019" y1="437.019" y2="74.98"><stop offset="0" stop-color="#ff4747"/><stop offset="1" stop-color="#ff9ceb"/></linearGradient><radialGradient id="SVGID_2_" cx="256" cy="162.704" gradientUnits="userSpaceOnUse" r="353.683"><stop offset="0" stop-color="#ff2f2b"/><stop offset=".0484" stop-color="#ff383b" stop-opacity=".952"/><stop offset=".2286" stop-color="#ff5670" stop-opacity=".771"/><stop offset=".4051" stop-color="#ff6f9c" stop-opacity=".595"/><stop offset=".5741" stop-color="#ff83be" stop-opacity=".426"/><stop offset=".7335" stop-color="#ff91d7" stop-opacity=".267"/><stop offset=".8796" stop-color="#ff99e6" stop-opacity=".12"/><stop offset="1" stop-color="#ff9ceb" stop-opacity="0"/></radialGradient><linearGradient id="lg1"><stop offset="0" stop-color="#ff195e"/><stop offset=".1028" stop-color="#ff2466"/><stop offset=".2813" stop-color="#ff407b"/><stop offset=".5141" stop-color="#ff6f9c"/><stop offset=".7891" stop-color="#ffaeca"/><stop offset="1" stop-color="#ffe3f1"/></linearGradient><linearGradient id="SVGID_3_" gradientUnits="userSpaceOnUse" x1="-56.256" x2="482.715" xlink:href="#lg1" y1="668.874" y2="129.903"/><linearGradient id="lg2"><stop offset="0" stop-color="#ffa9d4"/><stop offset=".2953" stop-color="#ffc6e3"/><stop offset=".7601" stop-color="#ffeff7"/><stop offset="1" stop-color="#fff"/></linearGradient><linearGradient id="SVGID_4_" gradientUnits="userSpaceOnUse" x1="29.343" x2="505.833" xlink:href="#lg2" y1="592.606" y2="116.116"/><linearGradient id="SVGID_5_" gradientUnits="userSpaceOnUse" x1="41.168" x2="367.496" xlink:href="#lg2" y1="534.853" y2="208.525"/><linearGradient id="SVGID_6_" gradientUnits="userSpaceOnUse" x1="98.826" x2="272.633" xlink:href="#lg2" y1="519.175" y2="345.368"/><linearGradient id="SVGID_7_" gradientUnits="userSpaceOnUse" x1="190.656" x2="523.812" xlink:href="#lg2" y1="537.753" y2="204.598"/><linearGradient id="SVGID_8_" gradientUnits="userSpaceOnUse" x1="247.919" x2="426.558" xlink:href="#lg2" y1="521.441" y2="342.801"/><linearGradient id="SVGID_9_" gradientUnits="userSpaceOnUse" x1="170.702" x2="388.455" xlink:href="#lg1" y1="543.599" y2="325.846"/><linearGradient id="SVGID_10_" gradientUnits="userSpaceOnUse" x1="-222.126" x2="462.804" xlink:href="#lg1" y1="748.23" y2="63.299"/><linearGradient id="SVGID_11_" gradientUnits="userSpaceOnUse" x1="-204.509" x2="418.515" y1="708.128" y2="85.104"><stop offset="0" stop-color="#ff195e"/><stop offset=".1023" stop-color="#ff2466"/><stop offset=".28" stop-color="#ff407b"/><stop offset=".5117" stop-color="#ff6f9c"/><stop offset=".7855" stop-color="#ffaeca"/><stop offset=".9953" stop-color="#ffe3f1"/></linearGradient><linearGradient id="SVGID_12_" gradientUnits="userSpaceOnUse" x1="-215.043" x2="320.581" xlink:href="#lg1" y1="674.218" y2="138.594"/><linearGradient id="SVGID_13_" gradientUnits="userSpaceOnUse" x1="22.798" x2="236.248" xlink:href="#lg1" y1="538.87" y2="325.421"/><linearGradient id="SVGID_14_" gradientUnits="userSpaceOnUse" x1="-383.852" x2="305.519" xlink:href="#lg1" y1="758.516" y2="69.145"/><radialGradient id="SVGID_15_" cx="256.691" cy="163.341" gradientUnits="userSpaceOnUse" r="251.079"><stop offset="0" stop-color="#ff2f2b"/><stop offset=".082" stop-color="#ff4654" stop-opacity=".918"/><stop offset=".1783" stop-color="#ff5d7c" stop-opacity=".822"/><stop offset=".2811" stop-color="#ff709e" stop-opacity=".719"/><stop offset=".3897" stop-color="#ff80ba" stop-opacity=".61"/><stop offset=".5062" stop-color="#ff8dd0" stop-opacity=".494"/><stop offset=".6342" stop-color="#ff95df" stop-opacity=".366"/><stop offset=".7828" stop-color="#ff9ae8" stop-opacity=".217"/><stop offset="1" stop-color="#ff9ceb" stop-opacity="0"/></radialGradient><linearGradient id="SVGID_16_" gradientUnits="userSpaceOnUse" x1="86.016" x2="623.822" xlink:href="#lg2" y1="419.416" y2="-118.391"/><linearGradient id="SVGID_17_" gradientUnits="userSpaceOnUse" x1="124.513" x2="404.941" xlink:href="#lg2" y1="561.421" y2="280.992"/><linearGradient id="SVGID_18_" gradientUnits="userSpaceOnUse" x1="205.52" x2="421.862" xlink:href="#lg2" y1="402.15" y2="185.808"/><linearGradient id="SVGID_19_" gradientUnits="userSpaceOnUse" x1="-45.478" x2="641.155" xlink:href="#lg2" y1="465.238" y2="-221.395"/><linearGradient id="SVGID_20_" gradientUnits="userSpaceOnUse" x1="51.644" x2="439.261" xlink:href="#lg2" y1="344.875" y2="-42.743"/><g><circle cx="256" cy="256" fill="url(#SVGID_1_)" r="256"/><circle cx="256" cy="256" fill="url(#SVGID_2_)" r="256"/><path d="m420.7 279.119c-58.556.187-117.112.274-175.668.262 25.623 26.143 51.225 52.293 76.578 78.168 2.77 2.816 6.621 4.546 10.9 4.506 4.28-.039 8.156-1.842 10.958-4.701-.011-.171 77.283-78.494 77.232-78.235z" fill="url(#SVGID_3_)"/><path d="m248.338 346.716c.006 10.092.014 20.184.022 30.276 2.551 5.285 5.098 10.569 7.639 15.852 2.542-5.283 5.088-10.567 7.639-15.852.009-10.092.016-20.184.022-30.276-5.106.004-10.214.004-15.322 0z" fill="url(#SVGID_4_)"/><path d="m171.972 376.971c.095 10.048.202 20.096.322 30.145 2.599 5.298 5.196 10.598 7.79 15.9 2.467-5.225 4.944-10.456 7.429-15.692-.098-10.063-.186-20.126-.263-30.189-5.093-.049-10.186-.103-15.278-.164z" fill="url(#SVGID_5_)"/><path d="m172.293 407.116c.229 19.248.505 38.497.826 57.745.072 4.227 3.499 7.729 7.653 7.813 4.153.084 7.473-3.287 7.416-7.521-.263-19.276-.488-38.552-.676-57.828-2.513.273-5.048.407-7.605.372-2.554-.035-5.094-.239-7.614-.581z" fill="url(#SVGID_6_)"/><path d="m324.751 377.136c-.077 10.063-.165 20.126-.263 30.189 2.485 5.236 4.962 10.467 7.429 15.692 2.594-5.302 5.191-10.602 7.79-15.9.12-10.048.227-20.096.322-30.145-5.093.06-10.186.114-15.278.164z" fill="url(#SVGID_7_)"/><path d="m324.487 407.324c-.188 19.276-.413 38.552-.676 57.828-.057 4.234 3.263 7.605 7.416 7.521s7.581-3.586 7.653-7.813c.322-19.248.597-38.497.826-57.745-2.521.342-5.059.546-7.615.581-2.555.036-5.091-.098-7.604-.372z" fill="url(#SVGID_8_)"/><path d="m342.663 367.407c-2.172-3.262-5.9-5.391-10.154-5.352-4.253.039-8.015 2.239-10.236 5.552-.001-.001-5.696 8.507-9.502 14.209-1.832 2.742-.688 6.467 2.354 7.597 11.018 4.098 23.21 3.938 34.308-.409 3.063-1.201 4.275-4.939 2.491-7.63-3.078-4.648-6.166-9.304-9.261-13.967z" fill="url(#SVGID_9_)"/><path d="m455.368 193.95c-61.826-35.37-123.563-71.829-184.213-107.186-36.114 21.177-61.005 61.19-61.169 106.614-.208 67.733 55.043 123.061 122.785 122.718 67.723-.625 123.565-55.226 122.625-121.097-.006-.349-.021-.699-.028-1.049z" fill="url(#SVGID_10_)"/><path d="m331.48 70.985c-21.99-.41-42.535 5.376-60.325 15.78.603 67.452 55.473 122.018 123.018 122.539 22.365.205 43.294-5.464 61.195-15.354-1.713-65.386-57.868-121.481-123.888-122.965z" fill="url(#SVGID_11_)"/><path d="m266.969 279.381c-58.556.013-117.112-.075-175.668-.262 25.685 25.788 51.502 51.961 77.224 78.236 2.809 2.859 6.688 4.66 10.967 4.701s8.13-1.691 10.891-4.506c-.147.161 76.501-78.094 76.586-78.169z" fill="url(#SVGID_12_)"/><path d="m189.728 367.608c-2.223-3.313-5.984-5.513-10.237-5.552-4.254-.039-7.982 2.089-10.152 5.352-.002.001-5.561 8.377-9.266 13.971-1.783 2.692-.57 6.426 2.494 7.627 11.099 4.348 23.291 4.508 34.308.409 3.04-1.131 4.182-4.859 2.351-7.601-3.163-4.737-6.329-9.472-9.498-14.206z" fill="url(#SVGID_13_)"/><path d="m302.014 193.379c.209 67.733-55.043 123.061-122.785 122.718-67.724-.625-123.565-55.226-122.625-121.097 1.128-65.849 57.548-122.518 123.916-124.015 66.388-1.26 121.061 54.683 121.494 122.394z" fill="url(#SVGID_14_)"/><path d="m455.396 195c-1.128-65.849-57.549-122.518-123.916-124.015-28.551-.54-54.692 9.401-75.479 26.291-20.788-16.891-46.927-26.831-75.479-26.291-66.37 1.498-122.79 58.167-123.918 124.015-.472 32.68 12.896 62.203 34.708 84.119-.064-.259 77.231 78.064 77.212 78.236 2.809 2.859 6.688 4.66 10.967 4.701s8.13-1.691 10.891-4.506c-.113.127 65.542-66.903 65.618-66.976 21.957 22.409 43.875 44.793 65.609 66.976 2.77 2.816 6.621 4.546 10.9 4.506 4.28-.039 8.156-1.842 10.958-4.701-.01-.172 77.284-78.495 77.233-78.236 21.8-21.916 35.167-51.439 34.696-84.119z" fill="url(#SVGID_15_)"/><path d="m343.836 248.702c-58.557-.093-117.114-.093-175.671 0 25.585 25.975 51.288 52.184 76.876 78.343 2.797 2.846 6.669 4.618 10.959 4.618s8.164-1.772 10.95-4.618c-.025-.038 76.923-78.468 76.886-78.343z" fill="url(#SVGID_16_)"/><path d="m248.361 376.992c.029 34.259.071 68.517.127 102.776.009 4.245 3.372 7.696 7.513 7.695 4.141 0 7.505-3.45 7.513-7.695.055-34.259.098-68.517.127-102.776-2.526.308-5.075.477-7.639.477-2.567-.001-5.114-.17-7.641-.477z" fill="url(#SVGID_17_)"/><path d="m266.223 337.137c-2.204-3.301-5.958-5.474-10.223-5.474-4.264 0-8.018 2.173-10.221 5.474-.002 0-5.646 8.475-9.417 14.146-1.814 2.729-.635 6.47 2.427 7.638 11.094 4.231 23.33 4.231 34.423 0 3.063-1.168 4.24-4.914 2.425-7.642-3.135-4.712-6.273-9.426-9.414-14.142z" fill="url(#SVGID_18_)"/><path d="m378.364 162.404c-61.609-35.775-122.796-71.818-182.563-105.936-36.216 21.858-61.616 61.971-62.191 107.003-.871 67.052 54.534 121.922 122.39 122.067 67.856-.146 123.261-55.016 122.39-122.067-.005-.357-.019-.712-.026-1.067z" fill="url(#SVGID_19_)"/><path d="m256 39.538c-21.848-.004-42.354 6.209-60.199 16.93-.469 67.156 54.04 121.166 121.48 121.643 22.318.144 43.214-5.62 61.083-15.707-1.654-66.546-56.8-122.756-122.364-122.866z" fill="url(#SVGID_20_)"/></g></svg>