<svg id="Capa_1" enable-background="new 0 0 512 512" height="512" viewBox="0 0 512 512" width="512" xmlns="http://www.w3.org/2000/svg" xmlns:xlink="http://www.w3.org/1999/xlink"><linearGradient id="SVGID_1_" gradientUnits="userSpaceOnUse" x1="74.981" x2="437.019" y1="437.019" y2="74.981"><stop offset="0" stop-color="#00aa45"/><stop offset="1" stop-color="#d3ff33"/></linearGradient><radialGradient id="SVGID_2_" cx="256" cy="256" gradientUnits="userSpaceOnUse" r="256"><stop offset="0" stop-color="#00aa45"/><stop offset=".109" stop-color="#0fb044" stop-opacity=".891"/><stop offset=".3171" stop-color="#35bf40" stop-opacity=".683"/><stop offset=".6028" stop-color="#73d83b" stop-opacity=".397"/><stop offset=".9518" stop-color="#c7fa34" stop-opacity=".048"/><stop offset="1" stop-color="#d3ff33" stop-opacity="0"/></radialGradient><linearGradient id="lg1"><stop offset="0" stop-color="#95e12e"/><stop offset=".3557" stop-color="#c0ed83"/><stop offset=".664" stop-color="#e2f7c6"/><stop offset=".8861" stop-color="#f7fdef"/><stop offset="1" stop-color="#fff"/></linearGradient><linearGradient id="SVGID_3_" gradientUnits="userSpaceOnUse" x1="141.838" x2="371.556" xlink:href="#lg1" y1="450.609" y2="220.891"/><linearGradient id="lg2"><stop offset="0" stop-color="#00aa45"/><stop offset=".3348" stop-color="#57cd3e"/><stop offset=".6186" stop-color="#9ae838"/><stop offset=".8231" stop-color="#c3f934"/><stop offset=".928" stop-color="#d3ff33"/></linearGradient><linearGradient id="SVGID_4_" gradientTransform="matrix(-1 0 0 1 512 0)" gradientUnits="userSpaceOnUse" x1="173.169" x2="12.37" xlink:href="#lg2" y1="214.778" y2="53.979"/><linearGradient id="lg3"><stop offset="0" stop-color="#5ccd38" stop-opacity="0"/><stop offset=".2267" stop-color="#4cc73a" stop-opacity=".227"/><stop offset=".6659" stop-color="#23b740" stop-opacity=".666"/><stop offset="1" stop-color="#00aa45"/></linearGradient><linearGradient id="SVGID_5_" gradientTransform="matrix(-1 0 0 1 512 0)" gradientUnits="userSpaceOnUse" x1="87.09" x2="134.254" xlink:href="#lg3" y1="164.408" y2="164.408"/><linearGradient id="SVGID_6_" gradientUnits="userSpaceOnUse" x1="71.217" x2="338.982" xlink:href="#lg1" y1="366.988" y2="99.223"/><linearGradient id="SVGID_7_" gradientUnits="userSpaceOnUse" x1="71.406" x2="238.078" xlink:href="#lg2" y1="216.603" y2="49.931"/><linearGradient id="SVGID_8_" gradientUnits="userSpaceOnUse" x1="87.091" x2="134.255" xlink:href="#lg3" y1="164.408" y2="164.408"/><linearGradient id="SVGID_9_" gradientUnits="userSpaceOnUse" x1="-31.022" x2="476.523" xlink:href="#lg1" y1="543.047" y2="35.502"/><linearGradient id="SVGID_10_" gradientUnits="userSpaceOnUse" x1="118.957" x2="431.399" y1="317.159" y2="4.717"><stop offset="0" stop-color="#00aa45"/><stop offset=".3608" stop-color="#57cd3e"/><stop offset=".6666" stop-color="#9ae838"/><stop offset=".887" stop-color="#c3f934"/><stop offset="1" stop-color="#d3ff33"/></linearGradient><linearGradient id="lg4"><stop offset="0" stop-color="#5ccd38"/><stop offset=".4615" stop-color="#9ae735"/><stop offset=".8173" stop-color="#c3f834"/><stop offset="1" stop-color="#d3ff33"/></linearGradient><linearGradient id="SVGID_11_" gradientUnits="userSpaceOnUse" x1="154.148" x2="339.647" xlink:href="#lg4" y1="281.093" y2="95.594"/><linearGradient id="SVGID_12_" gradientUnits="userSpaceOnUse" x1="155.545" x2="299.318" xlink:href="#lg4" y1="279.696" y2="135.923"/><linearGradient id="lg5"><stop offset="0" stop-color="#5ccd38"/><stop offset=".1797" stop-color="#65d03c"/><stop offset=".473" stop-color="#7dd945"/><stop offset=".8414" stop-color="#a5e854"/><stop offset="1" stop-color="#b8ef5c"/></linearGradient><radialGradient id="SVGID_13_" cx="170.242" cy="416.047" gradientUnits="userSpaceOnUse" r="15.256" xlink:href="#lg5"/><radialGradient id="SVGID_14_" cx="200.51" cy="416.691" gradientUnits="userSpaceOnUse" r="15.285" xlink:href="#lg5"/><radialGradient id="SVGID_15_" cx="230.777" cy="417.06" gradientUnits="userSpaceOnUse" r="15.301" xlink:href="#lg5"/><linearGradient id="lg6"><stop offset="0" stop-color="#00aa45"/><stop offset=".1212" stop-color="#12b143"/><stop offset=".3647" stop-color="#41c43f"/><stop offset=".7046" stop-color="#8ce339"/><stop offset="1" stop-color="#d3ff33"/></linearGradient><linearGradient id="SVGID_16_" gradientUnits="userSpaceOnUse" x1="155.485" x2="273.284" xlink:href="#lg6" y1="420.656" y2="302.856"/><linearGradient id="SVGID_17_" gradientUnits="userSpaceOnUse" x1="151.169" x2="270.794" xlink:href="#lg6" y1="396.379" y2="276.755"/><linearGradient id="SVGID_18_" gradientUnits="userSpaceOnUse" x1="269.217" x2="415.218" xlink:href="#lg1" y1="397.743" y2="251.741"/><linearGradient id="lg7"><stop offset="0" stop-color="#5ccd38"/><stop offset=".1487" stop-color="#65d138"/><stop offset=".3915" stop-color="#7ddb37"/><stop offset=".696" stop-color="#a5ec35"/><stop offset="1" stop-color="#d3ff33"/></linearGradient><linearGradient id="SVGID_19_" gradientUnits="userSpaceOnUse" x1="326.158" x2="373.967" xlink:href="#lg7" y1="363.813" y2="316.004"/><linearGradient id="SVGID_20_" gradientUnits="userSpaceOnUse" x1="280.343" x2="327.974" xlink:href="#lg7" y1="364.245" y2="316.614"/><g><circle cx="256" cy="256" fill="url(#SVGID_1_)" r="256"/><circle cx="256" cy="256" fill="url(#SVGID_2_)" r="256"/><path d="m122.875 294.698c.276 42.904 1.012 85.808 2.207 128.712.487 16.683 14.374 30.922 30.919 31.576 51.667 1.978 103.333 2.423 155 1.335-60.93-52.403-124.636-108.033-188.126-161.623z" fill="url(#SVGID_3_)"/><path d="m418.473 135.015c.445 16.81.959 43.907 1.15 60.718.106 8.278-6.709 14.89-15.19 14.79-11.943-.15-23.885-.281-35.828-.394-.204-30.611-.604-61.222-1.199-91.833.014-.073 35.474 1.075 35.475 1.122 8.385.323 15.379 7.319 15.592 15.597z" fill="url(#SVGID_4_)"/><path d="m418.473 135.015c.445 16.81.959 43.907 1.15 60.718.106 8.278-6.709 14.89-15.19 14.79-11.943-.15-23.885-.281-35.828-.394-.204-30.611-.604-61.222-1.199-91.833.014-.073 35.474 1.075 35.475 1.122 8.385.323 15.379 7.319 15.592 15.597z" fill="url(#SVGID_5_)"/><path d="m388.953 196.28c-.357-35.897-1.035-71.793-2.034-107.69-.484-16.613-14.443-30.925-30.919-31.576-40-1.531-80-2.144-120-1.837 31.457 63 86.322 113.782 152.953 141.103z" fill="url(#SVGID_6_)"/><path d="m93.528 135.015c-.445 16.81-.958 43.907-1.15 60.718-.104 8.278 6.71 14.89 15.19 14.79 11.943-.15 23.885-.281 35.828-.394.204-30.611.604-61.222 1.199-91.833-.012-.073-35.476 1.075-35.475 1.122-8.386.323-15.378 7.319-15.592 15.597z" fill="url(#SVGID_7_)"/><path d="m93.528 135.015c-.445 16.81-.958 43.907-1.15 60.718-.104 8.278 6.71 14.89 15.19 14.79 11.943-.15 23.885-.281 35.828-.394.204-30.611.604-61.222 1.199-91.833-.012-.073-35.476 1.075-35.475 1.122-8.386.323-15.378 7.319-15.592 15.597z" fill="url(#SVGID_8_)"/><path d="m236 55.177c-26.667.204-53.333.817-80 1.838-16.474.65-30.434 14.962-30.919 31.575-1.914 68.703-2.648 137.406-2.207 206.108 37.084 77.808 107.114 139.824 188.126 161.623 15-.316 30-.761 45-1.335 16.543-.653 30.433-14.893 30.919-31.576 2.109-75.71 2.787-151.421 2.034-227.131-51.592-46.733-103.185-94.769-152.953-141.102z" fill="url(#SVGID_9_)"/><path d="m356.694 87.471c0 .003-50.343-1.74-100.689-1.583-50.345-.146-100.693 1.608-100.702 1.605-.638-.01-2.416 183.455-1.789 183.456 68.324.192 136.648.192 204.972 0 .628 0-1.193-183.473-1.792-183.478z" fill="url(#SVGID_10_)"/><path d="m185.093 117.23c-.499 41.062-.776 82.124-.832 123.187 47.827-.097 95.655-.097 143.482 0-47.883-41.16-95.876-82.993-142.65-123.187z" fill="url(#SVGID_11_)"/><path d="m185.093 117.23c27.94 57.577 80.444 103.487 142.65 123.187-.051-41.056-.323-82.113-.816-123.169-47.279-.874-94.556-.88-141.834-.018z" fill="url(#SVGID_12_)"/><path d="m177.809 416.233c.064 4.222-3.263 7.563-7.433 7.448s-7.621-3.63-7.7-7.839c-.079-4.213 3.255-7.532 7.439-7.43 4.187.102 7.63 3.599 7.694 7.821z" fill="url(#SVGID_13_)"/><path d="m208.077 416.809c.041 4.235-3.311 7.623-7.48 7.547-4.172-.074-7.598-3.572-7.653-7.801-.053-4.229 3.298-7.595 7.484-7.53 4.185.066 7.61 3.548 7.649 7.784z" fill="url(#SVGID_14_)"/><path d="m238.344 417.109c.015 4.245-3.356 7.668-7.527 7.634-4.171-.033-7.578-3.508-7.606-7.749-.028-4.242 3.343-7.647 7.529-7.617 4.185.031 7.591 3.488 7.604 7.732z" fill="url(#SVGID_15_)"/><path d="m238.126 332.571c-7.66-.019-15.32-.051-22.98-.094.039 10.234.085 20.469.14 30.703 7.634.062 15.268.105 22.902.132 4.214.016 7.629-3.421 7.624-7.666-.006-5.124-.012-10.249-.018-15.374-.006-4.246-3.436-7.689-7.668-7.701z" fill="url(#SVGID_16_)"/><path d="m222.887 355.555c-.021-5.12-.04-10.24-.057-15.359-.014-4.242-3.454-7.696-7.685-7.719-.029-7.676-.054-15.352-.074-23.027-.011-4.24-3.456-7.687-7.697-7.705-5.118-.021-10.237-.044-15.355-.072-4.241-.022-7.666 3.383-7.645 7.608.035 7.651.079 15.303.13 22.955-7.66-.076-15.32-.165-22.981-.267-4.229-.054-7.631 3.305-7.584 7.509.053 5.076.113 10.152.175 15.229.052 4.203 3.517 7.684 7.732 7.762 7.635.142 15.268.267 22.902.374.072 7.652.151 15.303.238 22.955.049 4.225 3.493 7.714 7.688 7.782 5.066.082 10.132.155 15.198.217 4.195.053 7.574-3.35 7.548-7.589-.049-7.676-.095-15.352-.136-23.027 4.217.032 7.62-3.383 7.603-7.626z" fill="url(#SVGID_17_)"/><path d="m342.932 316.797c-9.156.104-36.862.299-46.021.328-16.924.073-30.698 13.878-30.71 30.834-.006 16.954 13.644 30.732 30.429 30.572 9.093-.056 36.612-.449 45.705-.658 16.785-.346 30.708-14.345 30.94-31.064.234-16.719-13.42-30.158-30.343-30.012z" fill="url(#SVGID_18_)"/><path d="m357.98 347.092c-.1 8.405-7.03 15.365-15.458 15.512-8.429.149-15.198-6.612-15.135-15.065.066-8.454 6.969-15.374 15.433-15.473s15.259 6.62 15.16 15.026z" fill="url(#SVGID_19_)"/><path d="m312.091 347.703c-.058 8.466-6.944 15.407-15.373 15.477s-15.241-6.779-15.22-15.266c.023-8.488 6.897-15.391 15.361-15.437 8.462-.047 15.286 6.762 15.232 15.226z" fill="url(#SVGID_20_)"/></g></svg>