<svg id="Capa_1" enable-background="new 0 0 512 512" height="512" viewBox="0 0 512 512" width="512" xmlns="http://www.w3.org/2000/svg" xmlns:xlink="http://www.w3.org/1999/xlink"><linearGradient id="SVGID_1_" gradientUnits="userSpaceOnUse" x1="74.981" x2="437.02" y1="437.019" y2="74.98"><stop offset="0" stop-color="#364aff"/><stop offset="1" stop-color="#fc54ff"/></linearGradient><radialGradient id="SVGID_2_" cx="256.001" cy="256" gradientUnits="userSpaceOnUse" r="258.6"><stop offset="0" stop-color="#8d00db" stop-opacity=".66"/><stop offset=".2069" stop-color="#9f0de1" stop-opacity=".523"/><stop offset=".6178" stop-color="#cc30f0" stop-opacity=".252"/><stop offset="1" stop-color="#fc54ff" stop-opacity="0"/></radialGradient><linearGradient id="lg1"><stop offset="0" stop-color="#fc54ff"/><stop offset="1" stop-color="#fff"/></linearGradient><linearGradient id="SVGID_3_" gradientUnits="userSpaceOnUse" x1="-255.002" x2="501.011" xlink:href="#lg1" y1="777.545" y2="21.531"/><linearGradient id="SVGID_4_" gradientUnits="userSpaceOnUse" x1="-99.134" x2="442.716" xlink:href="#lg1" y1="705.317" y2="163.467"/><linearGradient id="lg2"><stop offset="0" stop-color="#b31de7"/><stop offset=".3399" stop-color="#cf4ef0"/><stop offset=".7861" stop-color="#f089fb"/><stop offset="1" stop-color="#fda0ff"/></linearGradient><linearGradient id="SVGID_5_" gradientUnits="userSpaceOnUse" x1="61.204" x2="380.829" xlink:href="#lg2" y1="461.882" y2="142.258"/><linearGradient id="SVGID_6_" gradientUnits="userSpaceOnUse" x1="26.142" x2="343.12" xlink:href="#lg2" y1="617.909" y2="300.931"/><linearGradient id="SVGID_7_" gradientUnits="userSpaceOnUse" x1="-49.522" x2="378.382" xlink:href="#lg2" y1="647.992" y2="220.088"/><linearGradient id="SVGID_8_" gradientUnits="userSpaceOnUse" x1="256" x2="256" y1="416.617" y2="234.651"><stop offset="0" stop-color="#fc54ff" stop-opacity="0"/><stop offset=".4404" stop-color="#fa53fe" stop-opacity=".291"/><stop offset=".599" stop-color="#f34dfc" stop-opacity=".395"/><stop offset=".7121" stop-color="#e844f8" stop-opacity=".47"/><stop offset=".8035" stop-color="#d738f3" stop-opacity=".53"/><stop offset=".8818" stop-color="#c127ec" stop-opacity=".582"/><stop offset=".95" stop-color="#a613e3" stop-opacity=".627"/><stop offset="1" stop-color="#8d00db" stop-opacity=".66"/></linearGradient><linearGradient id="SVGID_9_" gradientUnits="userSpaceOnUse" x1="1.608" x2="255.174" xlink:href="#lg2" y1="333.417" y2="79.851"/><linearGradient id="SVGID_10_" gradientTransform="matrix(-1 0 0 1 443.058 0)" gradientUnits="userSpaceOnUse" x1="453.599" x2="13.408" xlink:href="#lg2" y1="473.551" y2="33.36"/><linearGradient id="SVGID_11_" gradientUnits="userSpaceOnUse" x1="115.898" x2="302.48" xlink:href="#lg2" y1="292.016" y2="105.434"/><linearGradient id="SVGID_12_" gradientUnits="userSpaceOnUse" x1="256" x2="256" y1="188.613" y2="39.356"><stop offset="0" stop-color="#8d00db" stop-opacity=".66"/><stop offset=".05" stop-color="#a613e3" stop-opacity=".627"/><stop offset=".1182" stop-color="#c127ec" stop-opacity=".582"/><stop offset=".1965" stop-color="#d738f3" stop-opacity=".53"/><stop offset=".2879" stop-color="#e844f8" stop-opacity=".47"/><stop offset=".401" stop-color="#f34dfc" stop-opacity=".395"/><stop offset=".5596" stop-color="#fa53fe" stop-opacity=".291"/><stop offset="1" stop-color="#fc54ff" stop-opacity="0"/></linearGradient><linearGradient id="SVGID_13_" gradientUnits="userSpaceOnUse" x1="-97.773" x2="382.395" xlink:href="#lg1" y1="570.236" y2="90.067"/><linearGradient id="SVGID_14_" gradientUnits="userSpaceOnUse" x1="-23.349" x2="328.393" xlink:href="#lg2" y1="538.683" y2="186.941"/><linearGradient id="SVGID_15_" gradientUnits="userSpaceOnUse" x1=".125" x2="320.538" xlink:href="#lg2" y1="454.026" y2="133.613"/><linearGradient id="SVGID_16_" gradientUnits="userSpaceOnUse" x1="142.311" x2="334.545" xlink:href="#lg1" y1="356.07" y2="163.836"/><linearGradient id="SVGID_17_" gradientUnits="userSpaceOnUse" x1="-173.547" x2="369.436" xlink:href="#lg1" y1="782.172" y2="239.189"/><g><circle cx="256" cy="256" fill="url(#SVGID_1_)" r="256"/><circle cx="256" cy="256" fill="url(#SVGID_2_)" r="256"/><path d="m395.4 244.007c-92.933.024-185.867.024-278.8 0 .003 15.099.078 30.198.226 45.297 46.538 15.663 93.002 31.596 139.174 46.971 46.172-15.375 92.636-31.308 139.174-46.972.148-15.099.223-30.198.226-45.296z" fill="url(#SVGID_3_)"/><path d="m116.826 289.303c.384 39.428 1.26 78.857 2.627 118.285.295 8.332 7.27 15.422 15.547 15.784 25.333 1.089 50.667 1.836 76 2.241 14.63-29.813 29.721-59.864 45-89.976 15.279 30.112 30.37 60.163 45 89.976 25.333-.405 50.667-1.152 76-2.241 8.277-.362 15.252-7.452 15.547-15.784 1.367-39.428 2.242-78.857 2.627-118.285-92.783 1.129-185.565 1.129-278.348 0z" fill="url(#SVGID_4_)"/><path d="m302.125 244.023c-30.75.003-61.5.003-92.25 0 .001 15.345.026 30.69.075 46.034 15.399 15.407 30.773 30.843 46.05 46.218 15.278-15.375 30.651-30.811 46.05-46.218.049-15.345.074-30.689.075-46.034z" fill="url(#SVGID_5_)"/><path d="m271.35 290.14c-15.371 20.091-30.693 40.177-45.842 60.14 15.367 25.271 30.595 50.539 45.492 75.653 10-.053 20-.16 30-.32.557-45.185.907-90.371 1.05-135.556-10.233.041-20.467.069-30.7.083z" fill="url(#SVGID_6_)"/><path d="m209.95 290.057c.143 45.185.494 90.371 1.05 135.556 20 .32 40 .426 60 .32.186-45.264.302-90.529.35-135.793-20.467.027-40.933 0-61.4-.083z" fill="url(#SVGID_7_)"/><path d="m116.6 244.007c.011 54.527.962 109.054 2.853 163.582.295 8.332 7.27 15.422 15.547 15.784 80.667 3.468 161.333 3.468 242 0 8.277-.362 15.252-7.452 15.547-15.784 1.89-54.527 2.841-109.054 2.852-163.582-92.932.024-185.866.024-278.799 0z" fill="url(#SVGID_8_)"/><path d="m138.497 71.373c-13.288 28.467-14.162 60.237-1.784 87.898 2.396 5.367 7.81 8.752 13.813 8.664 37.59 9.581 75.333 19.692 113.151 29.966-10.248-25.63-20.455-51.258-30.489-76.818-3.248-5.269-6.486-10.533-9.71-15.789-15.438-25.129-40.928-41.098-69.312-43.314-6.449-.507-12.814 3.277-15.669 9.393z" fill="url(#SVGID_9_)"/><path d="m373.503 71.373c13.288 28.467 14.162 60.237 1.784 87.898-2.396 5.367-7.81 8.752-13.813 8.664-37.59 9.581-75.333 19.692-113.151 29.966 10.248-25.63 20.455-51.258 30.489-76.818 3.248-5.269 6.485-10.533 9.71-15.789 15.438-25.129 40.928-41.098 69.312-43.314 6.449-.507 12.814 3.277 15.669 9.393z" fill="url(#SVGID_10_)"/><path d="m233.188 121.085c-.084 20.49-.147 40.98-.189 61.47 15.334-.04 30.668-.04 46.002 0-.042-20.49-.105-40.98-.189-61.47-15.208-.08-30.416-.08-45.624 0z" fill="url(#SVGID_11_)"/><path d="m373.503 71.373c-2.855-6.116-9.22-9.9-15.668-9.391-28.385 2.216-53.874 18.185-69.312 43.314-3.225 5.256-6.462 10.519-9.71 15.789-15.208-.08-30.417-.08-45.625 0-3.248-5.269-6.485-10.533-9.71-15.789-15.438-25.129-40.928-41.098-69.312-43.314-6.448-.509-12.813 3.275-15.668 9.391-13.288 28.467-14.162 60.237-1.784 87.898 2.396 5.367 7.81 8.752 13.813 8.664 34.986 14.005 70.194 28.576 105.475 43.258 35.28-14.681 70.488-29.253 105.475-43.258 6.003.088 11.417-3.297 13.813-8.664 12.375-27.66 11.501-59.43-1.787-87.898z" fill="url(#SVGID_12_)"/><path d="m402.471 168.666c-28.41-.588-56.819-1.005-85.229-1.251-20.36 7.803-40.782 15.75-61.242 23.758-20.46-8.008-40.883-15.955-61.242-23.758-28.41.246-56.819.663-85.229 1.251-8.453.182-15.435 7.057-15.559 15.334-.33 22.5-.472 45-.424 67.5.009 4.14 3.465 7.515 7.709 7.537 31.086.146 62.171.248 93.257.306 20.484-7.942 40.989-15.958 61.488-23.966 20.499 8.008 41.004 16.025 61.488 23.966 31.086-.058 62.171-.16 93.257-.306 4.245-.022 7.7-3.397 7.709-7.537.048-22.5-.094-45-.424-67.5-.124-8.277-7.107-15.152-15.559-15.334z" fill="url(#SVGID_13_)"/><path d="m286.621 167.216c-15.258 15.295-30.611 30.681-45.986 46.065 15.355 15.359 30.748 30.757 46.109 46.104 10.248-.01 20.496-.024 30.744-.043.045-30.643-.037-61.285-.246-91.928-10.207-.087-20.414-.154-30.621-.198z" fill="url(#SVGID_14_)"/><path d="m194.758 167.415c-.209 30.643-.291 61.285-.246 91.928 30.744.057 61.488.072 92.232.043.023-30.723-.018-61.446-.123-92.169-30.621-.133-61.242-.067-91.863.198z" fill="url(#SVGID_15_)"/><path d="m278.966 167.187c.078 30.735.109 61.47.092 92.205 5.124-.004 10.248-.008 15.372-.014.028-30.708-.023-61.416-.154-92.124-.019-4.239-3.459-7.698-7.683-7.718-4.223-.021-7.637 3.407-7.627 7.651z" fill="url(#SVGID_16_)"/><path d="m240.631 265.763c.019 38.018.086 76.036.202 114.054.031 8.488 6.823 15.405 15.165 15.405 20.154 0 40.308-.177 60.462-.532 8.342-.15 15.229-7.149 15.364-15.59.584-37.819.924-75.638 1.022-113.456.011-4.055-1.602-7.94-4.482-10.805-13.855-13.785-27.751-27.653-41.634-41.538-13.847 13.838-27.731 27.725-41.601 41.595-2.882 2.882-4.5 6.791-4.498 10.867z" fill="url(#SVGID_17_)"/></g></svg>